HIERARCHY
ROOT Hips
{
	OFFSET 0.000000 0.000000 0.000000
	CHANNELS 6 Xposition Yposition Zposition Zrotation Yrotation Xrotation 
	JOINT LHipJoint
	{
		OFFSET 0.000000 0.000000 0.000000
		CHANNELS 3 Zrotation Yrotation Xrotation
		JOINT LeftUpLeg
		{
			OFFSET 1.363060 -1.794630 0.839290
			CHANNELS 3 Zrotation Yrotation Xrotation
			JOINT LeftLeg
			{
				OFFSET 2.448110 -6.726130 0.000000
				CHANNELS 3 Zrotation Yrotation Xrotation
				JOINT LeftFoot
				{
					OFFSET 2.562200 -7.039590 0.000000
					CHANNELS 3 Zrotation Yrotation Xrotation
					JOINT LeftToeBase
					{
						OFFSET 0.157640 -0.433110 2.322550
						CHANNELS 3 Zrotation Yrotation Xrotation
						End Site
						{
							OFFSET 0.000000 0.000000 0.000000
						}
					}
				}
			}
		}
	}
	JOINT RHipJoint
	{
		OFFSET 0.000000 0.000000 0.000000
		CHANNELS 3 Zrotation Yrotation Xrotation
		JOINT RightUpLeg
		{
			OFFSET -1.305520 -1.794630 0.839290
			CHANNELS 3 Zrotation Yrotation Xrotation
			JOINT RightLeg
			{
				OFFSET -2.542530 -6.985550 0.000000
				CHANNELS 3 Zrotation Yrotation Xrotation
				JOINT RightFoot
				{
					OFFSET -2.568260 -7.056230 0.000000
					CHANNELS 3 Zrotation Yrotation Xrotation
					JOINT RightToeBase
					{
						OFFSET -0.164730 -0.452590 2.363150
						CHANNELS 3 Zrotation Yrotation Xrotation
						End Site
						{
							OFFSET 0.000000 0.000000 0.000000
						}
					}
				}
			}
		}
	}
	JOINT LowerBack
	{
		OFFSET 0.000000 0.000000 0.000000
		CHANNELS 3 Zrotation Yrotation Xrotation
		JOINT Spine
		{
			OFFSET 0.028270 2.035590 -0.193380
			CHANNELS 3 Zrotation Yrotation Xrotation
			JOINT Spine1
			{
				OFFSET 0.056720 2.048850 -0.042750
				CHANNELS 3 Zrotation Yrotation Xrotation
				JOINT Neck
				{
					OFFSET 0.000000 0.000000 0.000000
					CHANNELS 3 Zrotation Yrotation Xrotation
					JOINT Neck1
					{
						OFFSET -0.054170 1.746240 0.172020
						CHANNELS 3 Zrotation Yrotation Xrotation
						JOINT Head
						{
							OFFSET 0.104070 1.761360 -0.123970
							CHANNELS 3 Zrotation Yrotation Xrotation
							End Site
							{
								OFFSET 0.000000 0.000000 0.000000
							}
						}
					}
				}
				JOINT LeftShoulder
				{
					OFFSET 0.000000 0.000000 0.000000
					CHANNELS 3 Zrotation Yrotation Xrotation
					JOINT LeftArm
					{
						OFFSET 3.362410 1.200890 -0.311210
						CHANNELS 3 Zrotation Yrotation Xrotation
						JOINT LeftForeArm
						{
							OFFSET 4.983000 -0.000000 -0.000000
							CHANNELS 3 Zrotation Yrotation Xrotation
							JOINT LeftHand
							{
								OFFSET 3.483560 -0.000000 -0.000000
								CHANNELS 3 Zrotation Yrotation Xrotation
								JOINT LeftFingerBase
								{
									OFFSET 0.000000 0.000000 0.000000
									CHANNELS 3 Zrotation Yrotation Xrotation
									JOINT LeftHandIndex1
									{
										OFFSET 0.715260 -0.000000 -0.000000
										CHANNELS 3 Zrotation Yrotation Xrotation
										End Site
										{
											OFFSET 0.000000 0.000000 0.000000
										}
									}
								}
								JOINT LThumb
								{
									OFFSET 0.000000 0.000000 0.000000
									CHANNELS 3 Zrotation Yrotation Xrotation
									End Site
									{
										OFFSET 0.000000 0.000000 0.000000
									}
								}
							}
						}
					}
				}
				JOINT RightShoulder
				{
					OFFSET 0.000000 0.000000 0.000000
					CHANNELS 3 Zrotation Yrotation Xrotation
					JOINT RightArm
					{
						OFFSET -3.136600 1.374050 -0.404650
						CHANNELS 3 Zrotation Yrotation Xrotation
						JOINT RightForeArm
						{
							OFFSET -5.241900 -0.000000 -0.000000
							CHANNELS 3 Zrotation Yrotation Xrotation
							JOINT RightHand
							{
								OFFSET -3.444170 -0.000000 -0.000000
								CHANNELS 3 Zrotation Yrotation Xrotation
								JOINT RightFingerBase
								{
									OFFSET 0.000000 0.000000 0.000000
									CHANNELS 3 Zrotation Yrotation Xrotation
									JOINT RightHandIndex1
									{
										OFFSET -0.622530 -0.000000 -0.000000
										CHANNELS 3 Zrotation Yrotation Xrotation
										End Site
										{
											OFFSET 0.000000 0.000000 0.000000
										}
									}
								}
								JOINT RThumb
								{
									OFFSET 0.000000 0.000000 0.000000
									CHANNELS 3 Zrotation Yrotation Xrotation
									End Site
									{
										OFFSET 0.000000 0.000000 0.000000
									}
								}
							}
						}
					}
				}
			}
		}
	}
}
MOTION
Frames: 11
Frame Time: 0.008333
-35.837673 17.343520 3.610780 -175.216756 -2.107871 -176.304276 13.838262 2.743983 -2.721299 -9.836223 -16.462482 -14.854878 -8.611799 8.965868 17.440212 -5.406308 18.738441 -8.565813 11.449200 -18.148000 -64.231900 -15.669026 -5.504000 -3.263368 6.972101 3.643336 -0.871255 7.420539 0.372910 7.763056 0.148800 -2.171781 14.159416 0.000000 0.000000 0.000000 3.574768 1.872587 7.637601 2.259564 1.180765 -5.280805 4.271510 0.542223 -15.303474 0.410146 5.934698 -15.824077 2.229859 5.586356 18.128393 -1.079300 1.259200 14.770100 10.461183 -7.703760 0.128785 -98.769961 11.762647 -2.276646 12.044520 -26.075385 -4.517983 -1.422787 2.764656 -7.463424 12.313911 39.438488 8.042900 -7.125000 0.000000 0.000000 -26.217700 65.169100 -13.198000 -9.401419 7.545911 1.601314 75.343462 -13.396901 33.843233 -17.152993 31.329694 -4.973117 1.962825 -1.989684 -52.673403 -30.057436 -33.421541 16.076300 7.125000 0.000000 0.000000 1.918000 -63.933100 -0.880300 
-35.835689 17.346717 3.602952 -175.728251 -1.999284 -176.043970 13.874353 2.705640 -2.686786 -10.402178 -17.247145 -14.629080 -8.855206 8.882314 17.052412 -5.586304 19.546489 -9.505065 11.294500 -18.076200 -63.734100 -15.665931 -5.479555 -3.281960 6.969175 3.644656 -0.867037 7.420225 0.375469 7.764747 0.148322 -2.169123 14.160369 0.000000 0.000000 0.000000 2.877739 1.889148 7.316036 2.224012 1.121532 -5.264002 4.439308 0.580087 -15.082948 0.788159 5.854587 -15.781329 2.714096 5.391643 18.103737 -0.865000 1.312900 14.707400 10.396026 -7.655563 0.144323 -99.107130 12.448976 3.805895 13.077084 -27.612809 -4.654463 -1.679555 2.652987 2.754387 1.293158 38.124516 1.839400 -7.125000 0.000000 0.000000 -36.042400 61.839800 -15.880900 -9.411279 7.633506 1.600799 75.645103 -13.991235 38.450664 -18.754176 32.854060 -5.263975 1.952571 -1.891291 -49.523411 -26.161044 -31.845850 13.260100 7.125000 0.000000 0.000000 5.644900 -61.397300 -2.257600 
-35.829404 17.351789 3.590824 -176.003491 -1.871337 -175.888888 13.883435 2.694594 -2.644236 -10.669043 -18.000500 -14.278383 -9.017861 8.761343 16.742089 -5.469163 19.444432 -10.549172 10.746000 -17.808500 -61.954000 -15.671056 -5.466192 -3.306428 6.971303 3.643575 -0.870193 7.420482 0.373987 7.763692 0.147520 -2.170722 14.159712 0.000000 0.000000 0.000000 2.357773 1.869837 6.951703 2.238390 1.029295 -5.207693 4.672745 0.590294 -14.704764 1.192474 5.805720 -15.736123 3.178982 5.231093 18.092062 -0.676000 1.380200 14.650300 10.333664 -7.592651 0.150358 -99.104743 13.236780 10.349616 14.145798 -28.970904 -4.623163 -1.491861 2.578138 10.480181 0.337919 32.879256 1.184500 -7.125000 0.000000 0.000000 -31.996200 57.600800 -10.589500 -9.411094 7.701501 1.602406 75.824908 -14.391660 42.560914 -20.275308 34.237276 -5.577479 1.894238 -1.846733 -45.082596 -22.900244 -30.346155 11.054600 7.125000 0.000000 0.000000 8.416900 -59.206900 -2.934300 
-35.822568 17.361492 3.578475 -176.253109 -1.677556 -175.828816 13.894981 2.714589 -2.596602 -10.949300 -18.535984 -13.913317 -9.140497 8.646612 16.505790 -5.481204 19.660646 -11.168978 10.441300 -17.650700 -60.953400 -15.665030 -5.460012 -3.311321 6.972199 3.643114 -0.871540 7.420584 0.373399 7.763278 0.147170 -2.171367 14.159454 0.000000 0.000000 0.000000 1.962250 1.900835 6.918510 2.222714 1.042951 -5.226780 4.670223 0.617257 -14.751431 1.472238 5.651605 -15.663309 3.786432 4.890119 18.239336 -0.373800 1.335700 14.699800 10.150958 -7.539734 0.174022 -98.317300 14.421440 17.893180 15.856958 -30.682726 -4.783281 -1.352723 2.404305 14.407128 1.125229 28.820262 1.387700 -7.125000 0.000000 0.000000 -28.344500 54.479600 -7.027600 -9.420326 7.790944 1.580834 76.398727 -14.856626 45.413867 -21.262171 35.103574 -5.738658 1.794314 -1.872109 -39.121094 -19.894113 -28.513780 9.041400 7.125000 0.000000 0.000000 10.609600 -56.811500 -3.095300 
-35.827640 17.369540 3.572190 -176.483396 -1.467404 -175.754270 13.918199 2.710933 -2.566170 -11.242732 -18.982221 -13.673759 -9.238505 8.623861 16.469204 -5.215446 19.145562 -12.111655 10.166800 -17.502600 -60.044300 -15.662126 -5.451446 -3.323232 6.973575 3.642412 -0.873609 7.420744 0.372391 7.762582 0.146856 -2.172442 14.159021 0.000000 0.000000 0.000000 1.739669 1.937430 6.852303 2.202079 1.088296 -5.216265 4.576783 0.641844 -14.640133 1.596797 5.450520 -15.777998 4.338923 4.532406 18.395744 -0.067300 1.254800 14.794700 9.920213 -7.439672 0.228171 -97.046751 15.285157 25.375693 17.758017 -32.587670 -5.372554 -1.044337 2.442656 15.644062 7.080096 29.357148 4.038700 -7.125000 0.000000 0.000000 -23.046900 55.892700 -6.401800 -9.391563 7.817131 1.546238 76.423488 -15.252546 48.784038 -22.443180 36.050467 -5.952035 1.685325 -1.857477 -33.525030 -17.148792 -26.208158 7.206500 7.125000 0.000000 0.000000 12.265300 -54.122500 -2.782100 
-35.838996 17.374612 3.572962 -176.468860 -1.297231 -175.633959 13.937357 2.672423 -2.562338 -11.220735 -19.215366 -13.733544 -9.232898 8.725905 16.664061 -4.759505 17.999694 -12.932766 9.790200 -17.290200 -58.784900 -15.661467 -5.439355 -3.335372 6.972344 3.642944 -0.871899 7.420600 0.373336 7.763258 0.147118 -2.171411 14.159383 0.000000 0.000000 0.000000 1.881128 1.960408 6.764220 2.196661 1.129136 -5.214777 4.422483 0.628166 -14.530403 1.602104 5.217057 -15.955981 4.805222 4.146010 18.570451 0.216200 1.128800 14.926000 9.693208 -7.334118 0.269886 -95.662694 15.772268 31.378627 20.027401 -34.564484 -6.063078 -1.100703 2.341841 13.599870 8.717898 29.875535 4.870100 -7.125000 0.000000 0.000000 -21.816900 56.708000 -6.473700 -9.319803 7.804294 1.500279 75.916177 -15.579911 52.583606 -24.032676 37.255624 -6.288235 1.653309 -1.724929 -28.773750 -13.140722 -24.464827 5.258300 7.125000 0.000000 0.000000 15.322800 -51.944700 -2.672000 
-35.845391 17.377699 3.575498 -176.280410 -1.108844 -175.499079 13.938617 2.643417 -2.587972 -10.946591 -18.971587 -14.034563 -9.129845 8.870352 16.944535 -4.624904 17.526878 -12.795445 9.709600 -17.243300 -58.513200 -15.664553 -5.433966 -3.335980 6.969010 3.644522 -0.867082 7.420208 0.375886 7.765042 0.147802 -2.168694 14.160412 0.000000 0.000000 0.000000 2.140973 1.986583 6.679270 2.224734 1.157228 -5.229444 4.366637 0.605139 -14.498305 1.540865 5.012186 -16.028354 5.198419 3.815544 18.703233 0.466700 1.007000 15.006900 9.503724 -7.241013 0.307843 -94.404848 16.174154 36.343995 22.132522 -36.289992 -6.733504 -1.157501 2.238396 11.719427 9.916333 30.019865 5.460300 -7.125000 0.000000 0.000000 -20.761900 57.116400 -6.348800 -9.240885 7.775885 1.448203 75.280371 -15.591469 56.089249 -25.522978 38.349709 -6.648508 1.676089 -1.552862 -25.192453 -9.031934 -23.803367 3.679800 7.125000 0.000000 0.000000 18.843100 -50.894700 -2.822700 
-35.847265 17.373068 3.577593 -175.894892 -0.955114 -175.453271 13.913910 2.647437 -2.628327 -10.447296 -18.414361 -14.346949 -8.960008 8.965346 17.194604 -4.753365 17.605114 -12.022742 9.777700 -17.282900 -58.742700 -15.669738 -5.441484 -3.329558 6.968506 3.644785 -0.866341 7.420134 0.376169 7.765272 0.148333 -2.168384 14.160561 0.000000 0.000000 0.000000 2.588572 2.000481 6.648258 2.277197 1.186804 -5.227837 4.315083 0.568909 -14.455983 1.563580 4.846328 -15.999173 5.480026 3.525902 18.769188 0.625400 0.908100 15.025100 9.355208 -7.151610 0.340270 -93.234531 16.320290 40.032310 23.749671 -37.650086 -7.446110 -1.022019 2.237062 10.470940 14.727203 30.692983 7.863200 -7.125000 0.000000 0.000000 -16.302800 58.606700 -5.517500 -9.160097 7.724117 1.399578 74.564962 -15.353737 59.274824 -26.850422 39.358898 -7.106710 1.696522 -1.477438 -23.010061 -7.477705 -24.284665 3.224000 7.125000 0.000000 0.000000 20.476100 -51.220500 -3.253400 
-35.844289 17.362704 3.578144 -175.543310 -0.878955 -175.502700 13.887835 2.671926 -2.669161 -9.999699 -17.731632 -14.621180 -8.786846 9.029928 17.423184 -4.883359 17.681785 -11.130759 9.809100 -17.301100 -58.848600 -15.671820 -5.452398 -3.320396 6.969395 3.644399 -0.867612 7.420223 0.375384 7.764754 0.148573 -2.169208 14.160284 0.000000 0.000000 0.000000 2.988296 1.961223 6.679475 2.322971 1.161220 -5.215262 4.236848 0.508968 -14.417501 1.761679 4.778168 -15.857411 5.749387 3.312886 18.846619 0.744900 0.860500 15.035100 9.236033 -7.058373 0.358069 -92.115938 16.302579 42.828869 25.095949 -38.720776 -8.052020 -0.913903 2.212675 9.671057 18.547842 30.568660 9.690300 -7.125000 0.000000 0.000000 -12.221000 59.232200 -4.288900 -9.098680 7.671493 1.353588 73.882216 -14.914297 62.201790 -27.928148 40.168549 -7.523244 1.714804 -1.439839 -21.570002 -6.847366 -25.125733 3.128200 7.125000 0.000000 0.000000 21.454800 -51.967000 -3.825900 
-35.839878 17.353553 3.574285 -175.544695 -0.822049 -175.529930 13.889699 2.691215 -2.693296 -9.973324 -17.249180 -14.788557 -8.719062 9.090115 17.605998 -4.914452 17.682569 -10.735575 10.135400 -17.485300 -59.940000 -15.665705 -5.454433 -3.314680 6.969675 3.644274 -0.868012 7.420252 0.375157 7.764599 0.148577 -2.169447 14.160213 0.000000 0.000000 0.000000 3.045213 1.886908 6.643812 2.315738 1.077572 -5.201257 4.117226 0.449491 -14.364857 1.956744 4.780937 -15.559656 5.997428 3.218233 18.844871 0.855900 0.861600 14.944100 9.137234 -6.959722 0.371547 -91.078695 16.181028 44.875947 26.139965 -39.542999 -8.583245 -0.836483 2.182278 8.891541 21.848250 30.712430 11.400600 -7.125000 0.000000 0.000000 -8.729400 60.056300 -3.221600 -9.076501 7.620409 1.312107 73.323713 -14.207956 64.862508 -28.597264 40.617535 -7.729572 1.726988 -1.383361 -20.321817 -5.647904 -25.449528 2.724900 7.125000 0.000000 0.000000 22.742100 -52.154800 -4.183500 
-35.837342 17.347820 3.566788 -175.734271 -0.802640 -175.546793 13.901481 2.706655 -2.701359 -10.177609 -16.990460 -14.826552 -8.721736 9.126749 17.729846 -4.794051 17.390717 -10.735561 10.822900 -17.847300 -62.205200 -15.657718 -5.452346 -3.315316 6.970940 3.643664 -0.869868 7.420400 0.374203 7.763934 0.148284 -2.170454 14.159830 0.000000 0.000000 0.000000 2.912604 1.808291 6.529012 2.287154 0.981010 -5.173556 4.040549 0.402914 -14.203632 2.024232 4.690795 -15.460245 6.231901 3.034787 18.857250 0.983800 0.811600 14.914300 9.059314 -6.859147 0.371183 -90.212266 15.851762 46.347343 26.820116 -40.046068 -8.932215 -0.788567 2.152147 7.931658 24.248078 30.456395 12.541400 -7.125000 0.000000 0.000000 -5.944000 60.307700 -2.223900 -9.086371 7.569450 1.276419 72.784431 -13.328784 67.264462 -29.027769 40.900480 -7.887370 1.728208 -1.382011 -19.648890 -5.725364 -26.118266 2.841200 7.125000 0.000000 0.000000 23.026000 -52.796500 -4.613800 
